<?xml version="1.0" encoding="utf-8"?>
<!-- Generator: Adobe Illustrator 23.1.1, SVG Export Plug-In . SVG Version: 6.00 Build 0)  -->
<svg version="1.1" id="Layer_1" xmlns="http://www.w3.org/2000/svg" xmlns:xlink="http://www.w3.org/1999/xlink" x="0px" y="0px"
	 viewBox="0 0 1024 1024" style="enable-background:new 0 0 1024 1024;" xml:space="preserve">
<g>
	<path d="M895.2,1001.7c0,11.8-9.4,21.3-21.3,21.3H150c-11.9,0-21.3-9.5-21.3-21.3V597.2h191.6v159.7c0,8.2,4.7,16.6,13,20.1
		c8.3,3.6,16.6,1.2,23.7-4.7L616.1,512L357,251.7c-7.1-5.9-15.4-7.1-23.7-3.5c-8.2,2.3-13,10.6-13,18.9v159.7H128.8V22.3
		C128.8,10.4,138.2,1,150,1H874c11.9,0,21.3,9.5,21.3,21.3V1001.7z"/>
</g>
</svg>
