<?xml version="1.0" encoding="utf-8"?>
<!-- Generator: Adobe Illustrator 23.1.1, SVG Export Plug-In . SVG Version: 6.00 Build 0)  -->
<svg version="1.1" id="Layer_1" xmlns="http://www.w3.org/2000/svg" xmlns:xlink="http://www.w3.org/1999/xlink" x="0px" y="0px"
	 viewBox="0 0 1024 1024" style="enable-background:new 0 0 1024 1024;" xml:space="preserve">
<g>
	<path d="M832.2,383.8L304.7,911.4c-2.4,2.4-4.7,3.6-7.1,4.7L29.6,1022.8c-3.6,1.2-5.9,1.2-8.3,1.2c-5.9,0-10.7-2.4-15.4-5.9
		c-5.9-5.9-7.1-15.4-4.7-23.7l106.7-267.9c1.2-2.4,2.4-4.7,4.7-7.1l527.6-527.6L832.2,383.8z M1005.3,119.4L904.5,18.7
		c-26.1-24.9-66.4-24.9-91.3,0L704.2,127.7l192.1,192.1l109.1-109.1C1030.2,185.8,1030.2,145.5,1005.3,119.4z"/>
</g>
</svg>
