<?xml version="1.0" encoding="utf-8"?>
<!-- Generator: Adobe Illustrator 23.1.1, SVG Export Plug-In . SVG Version: 6.00 Build 0)  -->
<svg version="1.1" id="Layer_1" xmlns="http://www.w3.org/2000/svg" xmlns:xlink="http://www.w3.org/1999/xlink" x="0px" y="0px"
	 viewBox="0 0 1024 1024" style="enable-background:new 0 0 1024 1024;" xml:space="preserve">
<path d="M738.8,398.8c0-156.7-165-283.6-368.7-283.6S1.4,242.1,1.4,398.8c0,60.8,25,116.8,67.4,163.1C45,615.4,5.8,658,5.3,658.5
	c-3.9,4.1-5,10.1-2.7,15.4c2.3,5.3,7.3,8.5,12.9,8.5c64.9,0,118.6-21.8,157.2-44.3c57.1,27.8,124.6,44.3,197.3,44.3
	C573.8,682.4,738.8,555.5,738.8,398.8z M955.1,788.8c42.4-46.1,67.4-102.3,67.4-163.1c0-118.6-94.8-220.2-229.2-262.5
	c1.6,11.7,2.3,23.6,2.3,35.6c0,187.7-190.9,340.4-425.4,340.4c-19.1,0-37.8-1.4-56.2-3.4c55.8,101.9,187,173.5,339.8,173.5
	C726.4,909.3,794,893,851,865c38.6,22.5,92.4,44.3,157.2,44.3c5.7,0,10.8-3.4,12.9-8.5c2.3-5.1,1.2-11.2-2.7-15.4
	C1018,884.9,978.8,842.5,955.1,788.8z"/>
</svg>
