<?xml version="1.0" encoding="utf-8"?>
<!-- Generator: Adobe Illustrator 23.1.1, SVG Export Plug-In . SVG Version: 6.00 Build 0)  -->
<svg version="1.1" id="Layer_1" xmlns="http://www.w3.org/2000/svg" xmlns:xlink="http://www.w3.org/1999/xlink" x="0px" y="0px"
	 viewBox="0 0 1024 1024" style="enable-background:new 0 0 1024 1024;" xml:space="preserve">
<path d="M1014,929.5L813.5,719.2c55.6-75,88.4-167.8,88.4-268.2C901.9,201.9,700,0,451,0S0,201.9,0,451s201.9,451,451,451
	c105.5,0,202.5-36.2,279.3-96.9l199.3,209c13.3,13.3,34.9,13.3,48.3,0l36.2-36.2C1027.3,964.5,1027.3,942.9,1014,929.5z M593,787.3
	c-44.9,19-92.7,28.6-142,28.6s-97.1-9.6-142-28.6c-43.4-18.4-82.5-44.7-116-78.2c-33.5-33.5-59.9-72.6-78.2-116
	C95.6,548,86,500.3,86,451s9.6-97.1,28.6-142c18.4-43.4,44.7-82.5,78.2-116c33.5-33.5,72.6-59.9,116-78.2
	c44.9-19,92.7-28.6,142-28.6s97.1,9.6,142,28.6c43.4,18.4,82.5,44.7,116,78.2s59.9,72.6,78.2,116c19,44.9,28.6,92.7,28.6,142
	s-9.6,97.1-28.6,142c-18.4,43.4-44.7,82.5-78.2,116C675.5,742.6,636.4,768.9,593,787.3z"/>
</svg>
