<?xml version="1.0" encoding="utf-8"?>
<!-- Generator: Adobe Illustrator 23.1.1, SVG Export Plug-In . SVG Version: 6.00 Build 0)  -->
<svg version="1.1" id="Layer_1" xmlns="http://www.w3.org/2000/svg" xmlns:xlink="http://www.w3.org/1999/xlink" x="0px" y="0px"
	 viewBox="0 0 1024 1024" style="enable-background:new 0 0 1024 1024;" xml:space="preserve">
<style type="text/css">
	.st0{display:none;fill-rule:evenodd;clip-rule:evenodd;}
</style>
<path d="M512,0C229.7,0,0,229.7,0,512s229.7,512,512,512s512-229.7,512-512S794.3,0,512,0z M512,938.7
	c-235.6,0-426.7-191-426.7-426.7S276.4,85.3,512,85.3s426.7,191,426.7,426.7S747.6,938.7,512,938.7z M802.1,512
	c0,160.2-129.9,290.1-290.1,290.1S221.9,672.2,221.9,512C442.7,512,616.6,512,802.1,512z M594,373.3c0-39.6,32.1-71.7,71.7-71.7
	c39.6,0,71.7,32.1,71.7,71.7l47.8,0c0-66-53.5-119.5-119.5-119.5c-66,0-119.5,53.5-119.5,119.5L594,373.3z M286.8,373.3
	c0-39.6,32.1-71.7,71.7-71.7c39.6,0,71.7,32.1,71.7,71.7l47.8,0c0-66-53.5-119.5-119.5-119.5c-66,0-119.5,53.5-119.5,119.5
	L286.8,373.3z"/>
<path class="st0" d="M512,0C228.7,0,0,228.7,0,512c0,283.3,228.7,512,512,512c283.3,0,512-228.7,512-512C1024,228.7,795.3,0,512,0z
	 M547.8,926V659.1l-83-83l64.4-64.4H412.6l-82.4-82.6V275.3L245,190.1L337.1,98l54.1,54.1h89.2l54,54l59.1-59.1l92.1,92.1
	L494.6,429.9l58.3,58.3l39.8-39.8L779,634.6L547.8,926z"/>
</svg>
