<?xml version="1.0" encoding="utf-8"?>
<!-- Generator: Adobe Illustrator 23.1.1, SVG Export Plug-In . SVG Version: 6.00 Build 0)  -->
<svg version="1.1" id="Layer_1" xmlns="http://www.w3.org/2000/svg" xmlns:xlink="http://www.w3.org/1999/xlink" x="0px" y="0px"
	 viewBox="0 0 1024 1024" style="enable-background:new 0 0 1024 1024;" xml:space="preserve">
<path d="M913.6,194.9l67.3-67.3c13.3-13.3,13.3-34.9,0-48.3l-36.2-36.2c-13.3-13.3-34.9-13.3-48.3,0l-67.3,67.3
	C741.8,41.4,631.7,0,512,0C229.7,0,0,229.7,0,512c0,119.7,41.4,229.8,110.4,317.1l-58.8,58.8c-13.3,13.3-13.3,34.9,0,48.3l36.2,36.2
	c13.3,13.3,34.9,13.3,48.3,0l58.8-58.8C282.2,982.6,392.3,1024,512,1024c282.3,0,512-229.7,512-512
	C1024,392.3,982.6,282.2,913.6,194.9z M512,938.7c-235.6,0-426.7-191-426.7-426.7S276.4,85.3,512,85.3s426.7,191,426.7,426.7
	S747.6,938.7,512,938.7z M730.1,378.4C754,417.3,768,463,768,512c0,141.4-114.6,256-256,256c-141.4,0-256-114.6-256-256
	c0-141.4,114.6-256,256-256c49,0,94.7,14,133.6,37.9l-40.8,40.8c-13.3,13.3-13.3,34.9,0,48.3l36.2,36.2c13.3,13.3,34.9,13.3,48.3,0
	L730.1,378.4z"/>
</svg>
